<svg id="Enquiry-Icon" xmlns="http://www.w3.org/2000/svg" width="86.005" height="82.053" viewBox="0 0 86.005 82.053">
  <path id="Path_122704" data-name="Path 122704" d="M46.979,49.145a9.982,9.982,0,1,0-4.247-19.023C33.1,34.687,36.471,49.162,46.979,49.145ZM44.034,32.9c8.316-3.656,14.039,8.434,5.86,12.518A6.911,6.911,0,1,1,44.034,32.9Z" transform="translate(13.701 7.521)" fill="#887852"/>
  <path id="Path_122705" data-name="Path 122705" d="M82.326,5.283H11.679A7.688,7.688,0,0,0,4,12.962V66.715a7.688,7.688,0,0,0,7.679,7.679H67.456l1.965,6.952c4.212,11.993,21.273,4.043,14.753-6.909l-.165-.242a7.684,7.684,0,0,0,6-7.48V12.962a7.688,7.688,0,0,0-7.679-7.679Zm4.607,7.679v6.911H49.245A1.547,1.547,0,0,1,47.772,18.8L44.4,8.355H82.326a4.612,4.612,0,0,1,4.607,4.607ZM82.351,80.467a5.2,5.2,0,0,1-9.975.038L68.521,66.868a15.028,15.028,0,0,0,5.122-2.385l7.993,11.684a5.19,5.19,0,0,1,.715,4.3ZM69.717,37.426a15.459,15.459,0,0,0-15.2,2.95H24.288v-6.22H69.717ZM53.067,47.764C56.593,37.595,71.3,36.811,75.838,46.738a12.394,12.394,0,0,1-5.944,16.4c-9.712,4.743-20.677-5.277-16.827-15.376ZM82.326,71.322h-.282l-6.075-8.88c6.572-6.67,4.886-18.916-3.181-23.552V34.157a3.075,3.075,0,0,0-3.072-3.072H24.288a3.075,3.075,0,0,0-3.072,3.072v6.22a3.075,3.075,0,0,0,3.072,3.072H51.842A15.384,15.384,0,0,0,65.462,67.34l1.126,3.983H11.679a4.612,4.612,0,0,1-4.607-4.607V12.962a4.612,4.612,0,0,1,4.607-4.607H41.17L44.85,19.75a4.613,4.613,0,0,0,4.394,3.2H86.933v43.77a4.612,4.612,0,0,1-4.607,4.607Z" transform="translate(-4 -5.283)" fill="#887852"/>
  <path id="Path_122706" data-name="Path 122706" d="M17.179,12.319a1.536,1.536,0,0,0-1.536-1.536H11.036a1.536,1.536,0,0,0,0,3.072h4.607A1.536,1.536,0,0,0,17.179,12.319Z" transform="translate(-1.053 -2.336)" fill="#887852"/>
  <path id="Path_122707" data-name="Path 122707" d="M22.143,10.783H17.536a1.536,1.536,0,1,0,0,3.072h4.607a1.536,1.536,0,1,0,0-3.072Z" transform="translate(2.429 -2.336)" fill="#887852"/>
  <path id="Path_122708" data-name="Path 122708" d="M28.643,10.783H24.036a1.536,1.536,0,1,0,0,3.072h4.607a1.536,1.536,0,1,0,0-3.072Z" transform="translate(5.912 -2.336)" fill="#887852"/>
  <path id="Path_122709" data-name="Path 122709" d="M51.324,13.1a1.536,1.536,0,1,0-1.536-1.536A1.536,1.536,0,0,0,51.324,13.1Z" transform="translate(20.533 -2.738)" fill="#887852"/>
  <path id="Path_122710" data-name="Path 122710" d="M47.324,13.1a1.536,1.536,0,1,0-1.536-1.536A1.536,1.536,0,0,0,47.324,13.1Z" transform="translate(18.39 -2.738)" fill="#887852"/>
  <path id="Path_122711" data-name="Path 122711" d="M43.324,13.1a1.536,1.536,0,1,0-1.536-1.536A1.536,1.536,0,0,0,43.324,13.1Z" transform="translate(16.247 -2.738)" fill="#887852"/>
  <path id="Path_122712" data-name="Path 122712" d="M39.324,13.1a1.536,1.536,0,1,0-1.536-1.536A1.536,1.536,0,0,0,39.324,13.1Z" transform="translate(14.104 -2.738)" fill="#887852"/>
  <path id="Path_122713" data-name="Path 122713" d="M11,35.772a1.536,1.536,0,0,0,1.536,1.536h18.43a1.536,1.536,0,1,0,0-3.072H12.536A1.536,1.536,0,0,0,11,35.772Z" transform="translate(-0.249 10.23)" fill="#887852"/>
  <path id="Path_122714" data-name="Path 122714" d="M30.965,40.343H12.536a1.536,1.536,0,1,0,0,3.072H30.965a1.536,1.536,0,1,0,0-3.072Z" transform="translate(-0.25 13.501)" fill="#887852"/>
</svg>
