<svg xmlns="http://www.w3.org/2000/svg" width="21.857" height="13.557" viewBox="0 0 21.857 13.557">
  <g id="eye-Icon" transform="translate(0.839 0.75)">
    <path id="Path_122715" data-name="Path 122715" d="M23.394,12.634a1.257,1.257,0,0,1,0,1.788c-1.568,1.678-5.329,5.134-9.72,5.134S5.522,16.1,3.954,14.422a1.256,1.256,0,0,1,0-1.788C5.522,10.956,9.283,7.5,13.674,7.5S21.826,10.956,23.394,12.634Z" transform="translate(-3.581 -7.5)" fill="none" stroke="#887852" stroke-linecap="round" stroke-linejoin="round" stroke-width="1.5"/>
    <path id="Path_122716" data-name="Path 122716" d="M19.268,16.384A2.884,2.884,0,1,1,16.384,13.5,2.884,2.884,0,0,1,19.268,16.384Z" transform="translate(-6.291 -10.355)" fill="none" stroke="#887852" stroke-linecap="round" stroke-linejoin="round" stroke-width="1.5"/>
  </g>
</svg>
