<svg id="send-req" xmlns="http://www.w3.org/2000/svg" width="99.193" height="67.051" viewBox="0 0 99.193 67.051">
  <path id="Path_122689" data-name="Path 122689" d="M79.11,77.421H1.5a1.5,1.5,0,0,1-1.5-1.5V11.873a1.5,1.5,0,0,1,1.5-1.5H79.11a1.5,1.5,0,0,1,1.5,1.5V31.651a1.5,1.5,0,0,1-3.007,0V13.377H3.007V74.414h74.6V60.7a1.5,1.5,0,0,1,3.007,0V75.918a1.5,1.5,0,0,1-1.5,1.5Z" transform="translate(0 -10.37)" fill="#887852"/>
  <path id="Path_122690" data-name="Path 122690" d="M79.11,20.647H1.5a1.5,1.5,0,0,1,0-3.007H79.11a1.5,1.5,0,1,1,0,3.007Z" transform="translate(0 -6.372)" fill="#887852"/>
  <path id="Path_122691" data-name="Path 122691" d="M39.942,27.6H10.523a1.5,1.5,0,1,1,0-3.007H39.942a1.5,1.5,0,0,1,1.5,1.5A1.515,1.515,0,0,1,39.942,27.6Z" transform="translate(4.96 -2.55)" fill="#887852"/>
  <path id="Path_122692" data-name="Path 122692" d="M39.942,32.207H10.523a1.5,1.5,0,1,1,0-3.007H39.942a1.5,1.5,0,0,1,0,3.007Z" transform="translate(4.96 -0.014)" fill="#887852"/>
  <path id="Path_122693" data-name="Path 122693" d="M7.777,17.007h-2.6a1.5,1.5,0,0,1,0-3.007h2.6a1.5,1.5,0,0,1,0,3.007Z" transform="translate(2.018 -8.374)" fill="#887852"/>
  <path id="Path_122694" data-name="Path 122694" d="M11.947,17.007h-2.6a1.5,1.5,0,1,1,0-3.007h2.6a1.5,1.5,0,0,1,0,3.007Z" transform="translate(4.312 -8.374)" fill="#887852"/>
  <path id="Path_122695" data-name="Path 122695" d="M16.127,17.007h-2.6a1.5,1.5,0,0,1,0-3.007h2.6a1.5,1.5,0,0,1,0,3.007Z" transform="translate(6.61 -8.374)" fill="#887852"/>
  <path id="Path_122696" data-name="Path 122696" d="M28.593,54.28H5.793a1.5,1.5,0,0,1-1.5-1.5V38.423a1.5,1.5,0,0,1,1.5-1.5h22.8a1.5,1.5,0,0,1,1.5,1.5V52.776A1.5,1.5,0,0,1,28.593,54.28ZM7.3,51.288H27.09V39.942H7.3Z" transform="translate(2.359 4.232)" fill="#887852"/>
  <path id="Path_122697" data-name="Path 122697" d="M17.189,47.83a1.536,1.536,0,0,1-.852-.263l-11.408-7.9A1.5,1.5,0,0,1,6.649,37.2l10.54,7.316L27.729,37.2a1.5,1.5,0,0,1,1.72,2.464l-11.408,7.9A1.5,1.5,0,0,1,17.189,47.83Z" transform="translate(2.355 4.233)" fill="#887852"/>
  <path id="Path_122698" data-name="Path 122698" d="M61.848,63.09a1.486,1.486,0,0,1-1.348-.852L52.718,46.087,36.692,37.934a1.507,1.507,0,0,1,.093-2.728L77.347,18.234a1.112,1.112,0,0,1,.387-.108,1.876,1.876,0,0,1,.294-.015,1.466,1.466,0,0,1,.961.418,1.488,1.488,0,0,1,.465.945.843.843,0,0,1,0,.279,1.392,1.392,0,0,1-.108.418L63.258,62.113a1.5,1.5,0,0,1-1.348.961C61.894,63.09,61.879,63.09,61.848,63.09ZM55.663,45.25l6.029,12.539L73.86,26.108ZM40.954,36.725,53.54,43.111,71.953,23.752Z" transform="translate(19.727 -6.113)" fill="#887852"/>
  <path id="Path_122699" data-name="Path 122699" d="M26.269,45.027H23.913a1.5,1.5,0,0,1,0-3.007h2.356a1.5,1.5,0,0,1,0,3.007Z" transform="translate(12.324 7.036)" fill="#887852"/>
  <path id="Path_122700" data-name="Path 122700" d="M31.449,45.027H29.093a1.5,1.5,0,0,1,0-3.007h2.356a1.5,1.5,0,0,1,0,3.007Z" transform="translate(15.173 7.036)" fill="#887852"/>
  <path id="Path_122701" data-name="Path 122701" d="M34.151,44.905a1.509,1.509,0,0,1-.5-2.929l2.216-.775a1.505,1.505,0,0,1,1.007,2.836l-2.216.775A1.282,1.282,0,0,1,34.151,44.905Z" transform="translate(17.958 6.538)" fill="#887852"/>
  <path id="Path_122702" data-name="Path 122702" d="M39.041,43.2a1.509,1.509,0,0,1-.5-2.929l2.216-.775a1.505,1.505,0,1,1,1.007,2.836l-2.216.775A1.629,1.629,0,0,1,39.041,43.2Z" transform="translate(20.648 5.597)" fill="#887852"/>
  <path id="Path_122703" data-name="Path 122703" d="M43.921,41.475a1.509,1.509,0,0,1-.5-2.929l2.216-.775a1.505,1.505,0,0,1,1.007,2.836l-2.216.775A1.488,1.488,0,0,1,43.921,41.475Z" transform="translate(23.331 4.652)" fill="#887852"/>
</svg>
